HIERARCHY
ROOT Hips
{
	OFFSET 0.00000 0.00000 0.00000
	CHANNELS 6 Xposition Yposition Zposition Zrotation Yrotation Xrotation 
	JOINT LHipJoint
	{
		OFFSET 0 0 0
		CHANNELS 3 Zrotation Yrotation Xrotation
		JOINT LeftHip
		{
			OFFSET 1.64577 -1.42384 0.94276
			CHANNELS 3 Zrotation Yrotation Xrotation
			JOINT LeftKnee
			{
				OFFSET 2.11538 -5.81197 0.00000
				CHANNELS 3 Zrotation Yrotation Xrotation
				JOINT LeftAnkle
				{
					OFFSET 2.36541 -6.49893 0.00000
					CHANNELS 3 Zrotation Yrotation Xrotation
					JOINT LeftToe
					{
						OFFSET 0.17759 -0.48793 1.73865
						CHANNELS 3 Zrotation Yrotation Xrotation
						End Site
						{
							OFFSET 0.00000 -0.00000 0.91205
						}
					}
				}
			}
		}
	}
	JOINT RHipJoint
	{
		OFFSET 0 0 0
		CHANNELS 3 Zrotation Yrotation Xrotation
		JOINT RightHip
		{
			OFFSET -1.43750 -1.42384 0.94276
			CHANNELS 3 Zrotation Yrotation Xrotation
			JOINT RightKnee
			{
				OFFSET -2.10480 -5.78291 0.00000
				CHANNELS 3 Zrotation Yrotation Xrotation
				JOINT RightAnkle
				{
					OFFSET -2.34880 -6.45329 0.00000
					CHANNELS 3 Zrotation Yrotation Xrotation
					JOINT RightToe
					{
						OFFSET -0.22842 -0.62757 1.80469
						CHANNELS 3 Zrotation Yrotation Xrotation
						End Site
						{
							OFFSET -0.00000 -0.00000 0.95886
						}
					}
				}
			}
		}
	}
	JOINT lowerback
	{
		OFFSET 0 0 0
		CHANNELS 3 Zrotation Yrotation Xrotation
		JOINT Chest
		{
			OFFSET 0.06217 1.93758 -0.49272
			CHANNELS 3 Zrotation Yrotation Xrotation
			JOINT Chest2
			{
				OFFSET -0.03114 2.03621 -0.05830
				CHANNELS 3 Zrotation Yrotation Xrotation
				JOINT lowerneck
				{
					OFFSET 0 0 0
					CHANNELS 3 Zrotation Yrotation Xrotation
					JOINT Neck
					{
						OFFSET 0.04421 1.41010 0.26562
						CHANNELS 3 Zrotation Yrotation Xrotation
						JOINT Head
						{
							OFFSET -0.13407 1.43847 0.06181
							CHANNELS 3 Zrotation Yrotation Xrotation
							End Site
							{
								OFFSET -0.04980 1.45844 -0.00689
							}
						}
					}
				}
				JOINT LeftCollar
				{
					OFFSET 0 0 0
					CHANNELS 3 Zrotation Yrotation Xrotation
					JOINT LeftShoulder
					{
						OFFSET 2.18382 1.47753 -0.35694
CHANNELS 3 Zrotation Xrotation Yrotation
						JOINT LeftElbow
						{
OFFSET 0 -5.054600 0.000000
CHANNELS 3 Zrotation Xrotation Yrotation
							JOINT LeftWrist
							{
OFFSET 0 -3.390130 0.000000
CHANNELS 3 Zrotation Xrotation Yrotation
								JOINT lhand
								{
									OFFSET 0 0 0
CHANNELS 3 Zrotation Xrotation Yrotation
									JOINT LFingers
									{
OFFSET 0 -0.572420 -0.000000
CHANNELS 3 Zrotation Xrotation Yrotation
										End Site
										{
OFFSET 0 -0.461500 -0.000000
										}
									}
								}
								JOINT LThumb
								{
OFFSET 0 0.000000 0.000000
CHANNELS 3 Zrotation Xrotation Yrotation
									End Site
									{
OFFSET 0 -0.468550 0.468550
									}
								}
							}
						}
					}
				}
				JOINT RightCollar
				{
					OFFSET 0 0 0
					CHANNELS 3 Zrotation Yrotation Xrotation
					JOINT RightShoulder
					{
						OFFSET -2.06033 1.72839 -0.47437
CHANNELS 3 Zrotation Xrotation Yrotation
						JOINT RightElbow
						{
OFFSET 0 -5.070100 0.000000
CHANNELS 3 Zrotation Xrotation Yrotation
							JOINT RightWrist
							{
OFFSET 0 -3.149570 -0.000000
CHANNELS 3 Zrotation Xrotation Yrotation
								JOINT rhand
								{
									OFFSET 0 0 0
CHANNELS 3 Zrotation Xrotation Yrotation
									JOINT RFingers
									{
OFFSET 0 -0.718190 -0.000000
CHANNELS 3 Zrotation Xrotation Yrotation
										End Site
										{
OFFSET 0 -0.579020 -0.000000
										}
									}
								}
								JOINT RThumb
								{
OFFSET 0 0.000000 0.000000
CHANNELS 3 Zrotation Xrotation Yrotation
									End Site
									{
OFFSET 0 -0.587860 0.587860
									}
								}
							}
						}
					}
				}
			}
		}
	}
}
MOTION
Frames: 5
Frame Time: 0.008333333333333333
16.650160 15.467185 -0.747787 -184.383154 -74.544793 181.381798 0.000000 0.000000 0.000000 -24.411320 -13.714620 9.681362 0.890739 6.015738 16.830187 1.401607 21.631254 -38.543273 0.243282 3.173811 8.763045 0.000000 0.000000 0.000000 23.856344 17.828637 5.275509 -1.381555 -7.437567 21.018395 -1.616009 -19.166759 -37.200426 -0.809960 5.743316 -16.041411 0.101403 1.211427 3.393016 -1.054362 1.585243 1.457068 -1.194184 0.785114 -0.375018 6.169208 4.288263 -6.203463 -6.763388 5.899856 14.231757 -2.738072 2.670734 5.692761 0.000000 0.000000 0.000000 90.810910 -22.635068 44.196082 31.924458 -42.478435 12.692825 47.903226 -0.396111 -16.405062 0.000000 0.000000 0.000000 -7.125000 0.000000 0.000000 21.191813 52.420813 -4.040262 0.000000 0.000000 0.000000 -13.014194 3.068239 45.242446 -25.792266 -37.002856 -8.762381 -15.017633 -21.497159 -2.607334 0.000000 0.000000 0.000000 7.125000 0.000000 0.000000 8.858126 27.250082 3.862029
16.653721 15.466900 -0.749820 -184.724427 -74.670916 181.694539 0.000000 0.000000 0.000000 -24.482138 -13.730402 9.704607 0.884975 5.996752 16.774874 1.358256 21.679192 -38.378480 0.231284 3.095000 8.543213 0.000000 0.000000 0.000000 23.741129 17.676964 5.190005 -1.391618 -7.463376 21.095698 -1.635110 -19.085934 -37.222485 -0.805806 5.728934 -16.000026 0.037710 1.203882 3.372386 -1.029110 1.573763 1.452558 -1.131708 0.779195 -0.370815 6.095266 4.277206 -6.130323 -6.746774 5.893129 14.237454 -2.722631 2.665340 5.678733 0.000000 0.000000 0.000000 91.963057 -24.444492 48.633369 28.256369 -39.339666 10.290321 48.870004 3.824905 -21.975797 0.000000 0.000000 0.000000 -7.125000 0.000000 0.000000 24.473338 59.799075 -9.201475 0.000000 0.000000 0.000000 -13.101749 3.070133 45.387149 -25.830740 -37.041126 -8.785498 -15.096109 -21.537912 -2.475537 0.000000 0.000000 0.000000 7.125000 0.000000 0.000000 8.807920 27.384381 3.811431
16.656878 15.467021 -0.752281 -185.051653 -74.831299 182.011621 0.000000 0.000000 0.000000 -24.535892 -13.763050 9.700101 0.880937 5.983441 16.736345 1.311279 21.718975 -38.186135 0.217163 2.999453 8.277139 0.000000 0.000000 0.000000 23.638391 17.537482 5.108718 -1.399217 -7.482890 21.154046 -1.660100 -19.021136 -37.289941 -0.793509 5.685969 -15.875903 -0.043912 1.203181 3.330032 -1.011664 1.570915 1.454522 -1.067016 0.777497 -0.347926 5.974198 4.275777 -6.100574 -6.669512 5.895140 14.242946 -2.678784 2.665417 5.669543 0.000000 0.000000 0.000000 92.767784 -25.803192 51.652298 25.914067 -37.118586 8.837834 49.376856 6.901685 -25.511033 0.000000 0.000000 0.000000 -7.125000 0.000000 0.000000 26.835950 64.270330 -12.977675 0.000000 0.000000 0.000000 -13.160229 3.080528 45.500288 -25.822732 -37.033080 -8.780640 -15.177942 -21.565702 -2.393563 0.000000 0.000000 0.000000 7.125000 0.000000 0.000000 8.751482 27.467758 3.769135
16.659949 15.467671 -0.755049 -185.353608 -75.035765 182.322708 0.000000 0.000000 0.000000 -24.568350 -13.825198 9.659318 0.880376 5.981432 16.730526 1.261709 21.746295 -37.966639 0.201113 2.887042 7.964428 0.000000 0.000000 0.000000 23.553694 17.408925 5.040465 -1.402231 -7.490627 21.177182 -1.688181 -18.986560 -37.401181 -0.772838 5.613141 -15.666044 -0.119411 1.207847 3.277945 -1.019077 1.575187 1.463396 -1.031187 0.779393 -0.311496 5.824351 4.283823 -6.131889 -6.524274 5.902357 14.250540 -2.607076 2.670667 5.669189 0.000000 0.000000 0.000000 93.052087 -26.618347 52.379952 24.878134 -36.078936 8.218100 49.005222 8.181184 -27.196687 0.000000 0.000000 0.000000 -7.125000 0.000000 0.000000 27.020718 66.151315 -14.233978 0.000000 0.000000 0.000000 -13.162773 3.107179 45.566866 -25.787620 -36.998188 -8.759505 -15.252142 -21.574117 -2.380261 0.000000 0.000000 0.000000 7.125000 0.000000 0.000000 8.695825 27.480998 3.741854
16.663151 15.468592 -0.758251 -185.546830 -75.290474 182.538723 0.000000 0.000000 0.000000 -24.558309 -13.922556 9.589090 0.883809 5.992869 16.763722 1.212451 21.755160 -37.727577 0.183828 2.760644 7.613021 0.000000 0.000000 0.000000 23.518228 17.295990 5.003458 -1.399547 -7.483756 21.156699 -1.717595 -18.997573 -37.560945 -0.745430 5.514766 -15.382888 -0.157585 1.221156 3.232480 -1.057376 1.591622 1.477597 -1.048249 0.787511 -0.271222 5.661400 4.292504 -6.218906 -6.297076 5.899318 14.256781 -2.507005 2.675615 5.674602 0.000000 0.000000 0.000000 92.804867 -26.897200 50.532246 25.106211 -36.309324 8.353931 47.935592 7.727641 -27.315525 0.000000 0.000000 0.000000 -7.125000 0.000000 0.000000 25.205341 65.953925 -13.127724 0.000000 0.000000 0.000000 -13.092532 3.178404 45.565737 -25.748705 -36.959449 -8.736108 -15.306177 -21.565185 -2.436864 0.000000 0.000000 0.000000 7.125000 0.000000 0.000000 8.650508 27.422621 3.733925
